HIERARCHY
ROOT Hips
{
	OFFSET	0.000000	0.000000	0.000000
	CHANNELS 6 Xposition Yposition Zposition Zrotation Xrotation Yrotation
	JOINT LeftHip
	{
		OFFSET	11.298959	-8.380145	1.031225
		CHANNELS 3 Zrotation Xrotation Yrotation
		JOINT LeftKnee
		{
			OFFSET	-1.779039	-39.577010	0.417431
			CHANNELS 3 Zrotation Xrotation Yrotation
			JOINT LeftAnkle
			{
				OFFSET	0.890862	-42.943018	-6.321374
				CHANNELS 3 Zrotation Xrotation Yrotation
				JOINT LeftAnkleEnd
				{
					OFFSET	-0.632740	-5.685484	-5.621922
					CHANNELS 3 Zrotation Xrotation Yrotation
					End Site
					{
						OFFSET	0.012764	-1.270000	17.907022
					}
				}
			}
		}
	}
	JOINT RightHip
	{
		OFFSET	-11.298959	-8.380145	1.031225
		CHANNELS 3 Zrotation Xrotation Yrotation
		JOINT RightKnee
		{
			OFFSET	1.779039	-39.577010	0.417431
			CHANNELS 3 Zrotation Xrotation Yrotation
			JOINT RightAnkle
			{
				OFFSET	-0.890862	-42.943018	-6.321374
				CHANNELS 3 Zrotation Xrotation Yrotation
				JOINT RightAnkleEnd
				{
					OFFSET	0.632740	-5.685484	-5.621922
					CHANNELS 3 Zrotation Xrotation Yrotation
					End Site
					{
						OFFSET	-0.012764	-1.270000	17.907022
					}
				}
			}
		}
	}
	JOINT Chest
	{
		OFFSET	0.000013	6.720637	2.223076
		CHANNELS 3 Zrotation Xrotation Yrotation
		JOINT Chest1
		{
			OFFSET	-0.073051	18.182640	-2.749017
			CHANNELS 3 Zrotation Xrotation Yrotation
			JOINT LeftCollar
			{
				OFFSET	7.790763	29.076902	-2.820492
				CHANNELS 3 Zrotation Xrotation Yrotation
				JOINT LeftShoulder
				{
					OFFSET	13.187018	-7.309688	1.779387
					CHANNELS 3 Zrotation Xrotation Yrotation
					JOINT LeftElbow
					{
						OFFSET	3.671976	-29.168340	5.964022
						CHANNELS 3 Zrotation Xrotation Yrotation
						JOINT LeftWrist
						{
							OFFSET	0.572018	-25.624790	10.228225
							CHANNELS 3 Zrotation Xrotation Yrotation
							End Site
							{
								OFFSET	-1.779270	-8.879179	2.542515
							}
						}
					}
				}
			}
			JOINT RightCollar
			{
				OFFSET	-7.644689	29.076902	-2.820492
				CHANNELS 3 Zrotation Xrotation Yrotation
				JOINT RightShoulder
				{
					OFFSET	-13.187018	-7.309688	1.779387
					CHANNELS 3 Zrotation Xrotation Yrotation
					JOINT RightElbow
					{
						OFFSET	-3.671976	-29.168340	5.964022
						CHANNELS 3 Zrotation Xrotation Yrotation
						JOINT RightWrist
						{
							OFFSET	-0.572018	-25.624790	10.228225
							CHANNELS 3 Zrotation Xrotation Yrotation
							End Site
							{
								OFFSET	1.779270	-8.879179	2.542515
							}
						}
					}
				}
			}
			JOINT Neck
			{
				OFFSET	-0.441376	29.919930	-1.795122
				CHANNELS 3 Zrotation Xrotation Yrotation
				JOINT Head
				{
					OFFSET	-0.451988	10.184461	3.285312
					CHANNELS 3 Zrotation Xrotation Yrotation
					End Site
					{
						OFFSET	-0.448112	13.050622	-3.935146
					}
				}
			}
		}
	}
}
MOTION
Frames:     14
Frame Time: 0.008333
-47.347710	79.748968	-49.742927	8.845540	23.631800	-15.711901	57.041500	-32.084995	47.898705	-3.322558	2.438643	19.780500	5.316672	14.414802	9.494596	0.	0.	0.	-70.331802	-52.549496	-34.846802	29.179296	40.227993	-35.930305	16.141401	3.049796	-7.505668	0.	0.	0.	12.293704	44.752792	-0.765561	-4.526638	-5.868951	-1.628259	16.331902	-11.958501	-6.851199	118.694008	-57.720501	55.687695	122.921921	-98.774132	83.470993	21.205994	-18.670698	-0.058114	-5.053718	-13.350801	13.064803	-44.994297	-16.687107	-17.103300	-5.306294	-47.821106	44.539299	-21.764101	7.364026	-56.744606	-0.526888	-36.360203	13.359599	2.784413	-13.137401	4.118630	
-46.057111	79.237042	-49.352001	8.352900	23.468100	-16.105900	57.614498	-32.641102	48.620998	-3.689123	3.259298	18.918406	5.387297	15.478095	8.561384	0.	0.	0.	-70.019402	-52.193195	-34.310001	28.604897	39.687492	-35.521309	16.931103	3.700646	-7.296748	0.	0.	0.	11.808103	44.958599	-0.627165	-4.495688	-5.993026	-1.569890	16.653404	-11.981596	-6.708962	118.849991	-57.628689	56.052094	122.283485	-98.682632	82.847122	21.075392	-18.801504	-0.024427	-4.716159	-13.456597	12.502700	-43.491810	-15.574997	-17.267599	-8.174245	-46.572903	41.311993	-20.203796	6.827304	-57.634296	-0.375377	-36.119995	13.597299	2.660670	-13.154004	3.794601	
-44.758483	78.712597	-48.965586	7.914020	23.304600	-16.568199	58.279205	-33.285500	49.323891	-4.169740	4.474258	17.718897	5.287070	16.605000	7.828150	0.	0.	0.	-69.716904	-51.898296	-33.761295	27.923794	39.116203	-35.050804	17.703495	4.430221	-7.143437	0.	0.	0.	11.251402	45.171501	-0.481252	-4.439039	-6.137431	-1.496459	16.980307	-12.020801	-6.565848	118.860992	-57.473305	56.237499	122.187195	-98.535988	82.772919	20.934601	-18.945896	-0.009189	-4.365260	-13.523601	11.893301	-42.104107	-14.534204	-17.429600	-10.705001	-45.344612	38.323097	-18.730598	6.378561	-58.335403	-0.230251	-35.851398	13.855302	2.541121	-13.184402	3.447160	
-43.469643	78.186971	-48.586128	7.549580	23.140100	-17.094698	59.018505	-33.991898	49.997604	-4.742877	6.054270	16.236401	4.967545	17.727896	7.384778	0.	0.	0.	-69.434799	-51.664993	-33.203499	27.136797	38.517101	-34.522404	18.439894	5.228674	-7.054265	0.	0.	0.	10.622900	45.389496	-0.335535	-4.361458	-6.307731	-1.410810	17.311098	-12.069400	-6.421380	118.726997	-57.255302	56.236603	122.690430	-98.330391	83.306969	20.786699	-19.101896	-0.012853	-4.004377	-13.542999	11.250700	-40.857002	-13.573499	-17.589298	-12.892003	-44.162403	35.581203	-17.368902	6.019478	-58.851200	-0.096684	-35.553604	14.136101	2.432452	-13.232800	3.076742	
-42.205350	77.671590	-48.213883	7.277131	22.974400	-17.679100	59.809502	-34.730400	50.633598	-5.376195	7.952698	14.556404	4.396003	18.771690	7.299106	0.	0.	0.	-69.182999	-51.489601	-32.638802	26.247892	37.891697	-33.942406	19.123194	6.079555	-7.034959	0.	0.	0.	9.924804	45.608894	-0.199710	-4.269609	-6.509101	-1.315300	17.645203	-12.118699	-6.275208	118.457993	-56.976395	56.052696	123.855919	-98.068573	84.513786	20.635099	-19.266796	-0.035463	-3.635899	-13.508101	10.590701	-39.767204	-12.696100	-17.750204	-14.740906	-43.050289	33.089199	-16.135303	5.745935	-59.188206	0.021836	-35.226501	14.440702	2.341440	-13.302099	2.685933	
-40.796947	77.704069	-48.172282	7.109490	22.809401	-18.313803	60.625103	-35.469997	51.226303	-6.034428	10.104805	12.788698	3.564813	19.661804	7.602356	0.	0.	0.	-68.970100	-51.365498	-32.069397	25.264799	37.238400	-33.319904	19.738102	6.959353	-7.088165	0.	0.	0.	9.162352	45.824497	-0.084398	-4.171419	-6.745710	-1.211439	17.982502	-12.159002	-6.127658	118.067009	-56.637894	55.697697	125.755508	-97.760178	86.466408	20.482899	-19.437796	-0.076787	-3.261420	-13.415401	9.929591	-38.841408	-11.900101	-17.918001	-16.268908	-42.026699	30.845398	-15.038603	5.548819	-59.355309	0.123310	-34.871807	14.768000	2.274671	-13.393504	2.279770	
-39.382499	77.976087	-48.182301	7.053531	22.649599	-18.990200	61.436604	-36.180695	51.773499	-6.687958	12.431103	11.056802	2.498284	20.332903	8.278851	0.	0.	0.	-68.801598	-51.284100	-31.496206	24.198004	36.552204	-32.667194	20.272303	7.837452	-7.213789	0.	0.	0.	8.343883	46.029499	0.000088	-4.075366	-7.020300	-1.099790	18.322599	-12.180400	-5.980179	117.572990	-56.240295	55.189697	128.469528	-97.421165	89.246773	20.332603	-19.611897	-0.136517	-2.882126	-13.265002	9.282791	-38.075996	-11.178806	-18.100401	-17.502499	-41.103298	28.842705	-14.079802	5.415339	-59.363907	0.207001	-34.493000	15.114202	2.238442	-13.506297	1.865813	
-37.973498	78.217589	-48.186622	7.109440	22.502899	-19.699699	62.216705	-36.835701	52.277798	-7.319868	14.843596	9.488090	1.253842	20.736698	9.263408	0.	0.	0.	-68.679108	-51.235592	-30.918901	23.060503	35.823395	-32.000095	20.715302	8.677111	-7.409585	0.	0.	0.	7.480619	46.215595	0.045037	-3.989841	-7.333930	-0.980236	18.665396	-12.173299	-5.835551	116.993996	-55.782104	54.550591	-47.919701	-82.926208	-87.061798	20.186598	-19.786203	-0.214479	-2.499080	-13.061001	8.664459	-37.458893	-10.522197	-18.306299	-18.474890	-40.283497	27.069502	-13.253096	5.330906	-59.227390	0.273221	-34.095699	15.472600	2.238590	-13.637798	1.453722	
-36.571222	78.396498	-48.185081	7.270619	22.380102	-20.434000	62.942204	-37.413605	52.746899	-7.929292	17.255199	8.202717	-0.084738	20.848202	10.448698	0.	0.	0.	-68.598701	-51.210300	-30.334900	21.866999	35.037594	-31.337807	21.059000	9.437247	-7.672289	0.	0.	0.	6.586339	46.374001	0.044465	-3.922450	-7.685768	-0.852333	19.009903	-12.129098	-5.697960	116.348999	-55.258900	53.803196	-43.345520	-83.254333	-82.391479	20.046995	-19.958599	-0.310839	-2.113521	-12.810397	8.086490	-36.970909	-9.917998	-18.544298	-19.223612	-39.563202	25.509003	-12.547006	5.281366	-58.960701	0.323207	-33.687397	15.834700	2.280301	-13.783805	1.054408	
-35.176319	78.515105	-48.178013	7.524070	22.294901	-21.184999	63.596802	-37.900398	53.193501	-8.530266	19.586800	7.303261	-1.421317	20.668503	11.701801	0.	0.	0.	-68.550598	-51.198799	-29.739504	20.632994	34.175903	-30.703098	21.295998	10.075199	-7.998858	0.	0.	0.	5.676839	46.495808	-0.004090	-3.879571	-8.073168	-0.715867	19.355000	-12.040599	-5.572682	115.651001	-54.663216	52.969803	-37.787334	-83.531853	-76.721359	19.915403	-20.127407	-0.426228	-1.726961	-12.522700	7.557899	-36.588100	-9.353370	-18.822199	-19.787600	-38.931110	24.139095	-11.946702	5.255318	-58.580402	0.358896	-33.277004	16.190298	2.367769	-13.938804	0.678782	
-33.788901	78.575629	-48.166226	7.851309	22.261999	-21.944700	64.173302	-38.290100	53.633598	-9.146900	21.772299	6.864348	-2.664881	20.222902	12.886997	0.	0.	0.	-68.519501	-51.192505	-29.125700	19.373598	33.215897	-30.121998	21.419901	10.550200	-8.387453	0.	0.	0.	4.769140	46.573307	-0.099064	-3.865960	-8.491730	-0.571351	19.699100	-11.901599	-5.465621	114.911011	-53.984020	52.071495	-31.313303	-83.727554	-70.120094	19.793900	-20.291805	-0.561746	-1.341360	-12.209099	7.084350	-36.284702	-8.816019	-19.146297	-20.205908	-38.370907	22.932404	-11.435600	5.245932	-58.104298	0.382751	-32.874599	16.528999	2.503733	-14.096296	0.336199	
-32.597862	78.642713	-47.949054	8.229760	22.296301	-22.705299	64.674408	-38.585697	54.084396	-9.805848	23.760794	6.923708	-3.744729	19.555098	13.887498	0.	0.	0.	-68.485611	-51.183891	-28.485796	18.102497	32.134396	-29.622602	21.424295	10.827196	-8.838159	0.	0.	0.	3.880630	46.600502	-0.234723	-3.884600	-8.935335	-0.420431	20.040596	-11.707194	-5.382762	114.133018	-53.207481	51.128288	-24.118023	-83.811127	-62.783073	19.684200	-20.451191	-0.718960	-0.959152	-11.880794	6.667831	-36.034798	-8.295610	-19.520594	-20.515001	-37.863388	21.857412	-10.997802	5.251577	-57.551292	0.397469	-32.490086	16.840799	2.688852	-14.249591	0.033074	
-31.622568	78.848301	-47.457413	8.634429	22.411301	-23.458599	65.111496	-38.797199	54.561703	-10.528803	25.515703	7.476129	-4.619302	18.718199	14.622903	0.	0.	0.	-68.426598	-51.166405	-27.812202	16.830795	30.910198	-29.234104	21.303097	10.880899	-9.352840	0.	0.	0.	3.028022	46.573994	-0.401261	-3.936629	-9.396335	-0.266094	20.377205	-11.454002	-5.329518	113.322990	-52.318497	50.159801	-16.525694	-83.760147	-55.035713	19.588501	-20.605900	-0.899687	-0.583239	-11.549004	6.306672	-35.814697	-7.784844	-19.946402	-20.747797	-37.389191	20.879404	-10.620400	5.275602	-56.940304	0.405655	-32.132999	17.117100	2.921232	-14.392098	-0.228372	
-30.608122	79.130750	-46.955936	9.039740	22.617399	-24.196600	65.503899	-38.940498	55.077103	-11.326804	27.013798	8.472341	-5.276750	17.766596	15.057103	0.	0.	0.	-68.320702	-51.135105	-27.099800	15.566298	29.528099	-28.984396	21.050596	10.698901	-9.934012	0.	0.	0.	2.226109	46.493099	-0.585169	-4.021520	-9.865442	-0.112634	20.706902	-11.140100	-5.310271	112.481003	-51.302292	49.185898	-8.934367	-83.560570	-47.279015	19.509203	-20.756004	-1.105671	-0.217033	-11.223502	5.995780	-35.604496	-7.279930	-20.422201	-20.932198	-36.930599	19.962904	-10.293999	5.325081	-56.289997	0.409487	-31.811802	17.351299	3.195932	-14.517596	-0.450696	
